<svg width="32" height="32" viewBox="0 0 32 32" fill="none" xmlns="http://www.w3.org/2000/svg">
<g clip-path="url(#clip0_31365_9080)">
<path d="M16 32C24.8366 32 32 24.8366 32 16C32 7.16344 24.8366 0 16 0C7.16344 0 0 7.16344 0 16C0 24.8366 7.16344 32 16 32Z" fill="#4DA2FF"/>
<path fill-rule="evenodd" clip-rule="evenodd" d="M20.7277 14.9242L20.7273 14.925C21.4916 15.8969 21.9484 17.128 21.9484 18.4669C21.9484 19.8257 21.4779 21.0735 20.693 22.052L20.6255 22.1362L20.6075 22.0292C20.5923 21.9381 20.5744 21.8462 20.5536 21.7535C20.1607 20.0031 18.8809 18.5021 16.7745 17.2868C15.352 16.4683 14.5378 15.4828 14.324 14.3631C14.186 13.639 14.2886 12.9117 14.487 12.2888C14.6853 11.6661 14.9803 11.1444 15.2309 10.8302L16.0504 9.81385C16.1941 9.63564 16.4631 9.63564 16.6068 9.81385L20.7277 14.9242ZM22.0237 13.9089L16.5316 7.09753C16.4267 6.96749 16.2304 6.96749 16.1256 7.09753L10.6332 13.9086L10.6155 13.9315C9.60483 15.2034 9 16.8199 9 18.5795C9 22.6777 12.281 26 16.3286 26C20.3761 26 23.6571 22.6777 23.6571 18.5795C23.6571 16.8199 23.0523 15.2034 22.0417 13.9315L22.0237 13.9089ZM11.9474 14.9022L12.4389 14.2927L12.4537 14.4052C12.4655 14.4943 12.4797 14.5839 12.4966 14.6738C12.8145 16.3652 13.95 17.7755 15.8484 18.8678C17.4986 19.8204 18.4594 20.9156 18.7362 22.117C18.8517 22.6183 18.8723 23.1115 18.8223 23.5428L18.8192 23.5695L18.7954 23.5813C18.0506 23.9503 17.2133 24.1574 16.3284 24.1574C13.2247 24.1574 10.7085 21.6098 10.7085 18.4669C10.7085 17.1175 11.1723 15.8777 11.9474 14.9022Z" fill="white"/>
</g>
<defs>
<clipPath id="clip0_31365_9080">
<rect width="32" height="32" fill="white"/>
</clipPath>
</defs>
</svg>
