<svg xmlns="http://www.w3.org/2000/svg" width="88" height="106" viewBox="0 0 88 106" fill="none">
  <path d="M19.2608 68.6278H68.7393C73.6603 68.6278 78.3797 70.5826 81.8593 74.0623C85.339 77.5419 87.2938 82.2613 87.2938 87.1823V93.3671C87.2938 94.9915 86.9739 96.6 86.3522 98.1007C85.7306 99.6015 84.8195 100.965 83.6708 102.114C82.5222 103.262 81.1586 104.174 79.6578 104.795C78.1571 105.417 76.5486 105.737 74.9242 105.737H13.0759C11.4515 105.737 9.84304 105.417 8.34229 104.795C6.84153 104.174 5.47791 103.262 4.32928 102.114C3.18066 100.965 2.26951 99.6015 1.64788 98.1007C1.02625 96.6 0.706299 94.9915 0.706299 93.3671V87.1823C0.706299 82.2613 2.66114 77.5419 6.14078 74.0623C9.62041 70.5826 14.3398 68.6278 19.2608 68.6278ZM44.0001 62.443C39.939 62.443 35.9178 61.6431 32.1658 60.0891C28.4139 58.535 25.0048 56.2572 22.1333 53.3856C19.2617 50.514 16.9838 47.105 15.4297 43.3531C13.8756 39.6012 13.0757 35.5799 13.0757 31.5188C13.0757 27.4578 13.8756 23.4365 15.4297 19.6846C16.9838 15.9327 19.2617 12.5237 22.1333 9.6521C25.0048 6.78053 28.4139 4.50268 32.1658 2.94862C35.9178 1.39455 39.939 0.594694 44.0001 0.594727C52.2016 0.594792 60.0672 3.85289 65.8665 9.65228C71.6659 15.4517 74.9239 23.3173 74.9239 31.5188C74.9239 39.7204 71.6659 47.586 65.8665 53.3854C60.0672 59.1848 52.2016 62.4429 44.0001 62.443Z" fill="#C7CFE6"/>
</svg>